<svg width="16" height="8" viewBox="0 0 16 8" fill="none" xmlns="http://www.w3.org/2000/svg">
  <path d="M9.53674e-07 0.499893C2.28882e-05 0.401018 0.0313272 0.304369 0.0899563 0.222164C0.148585 0.139959 0.231907 0.0758895 0.329387 0.0380545C0.426867 0.000219453 0.534128 -0.00968203 0.637612 0.00960175C0.741096 0.0288855 0.836156 0.0764887 0.910774 0.146393L8.00328 6.79289L15.0958 0.146393C15.1964 0.0553144 15.3312 0.00491723 15.4711 0.00605644C15.611 0.00719565 15.7448 0.0597801 15.8437 0.152484C15.9427 0.245188 15.9988 0.370595 16 0.501693C16.0012 0.632791 15.9474 0.759092 15.8502 0.853393L8.3805 7.85339C8.28044 7.94713 8.14476 7.99979 8.00328 7.99979C7.8618 7.99979 7.72611 7.94713 7.62606 7.85339L0.156331 0.853393C0.106692 0.807037 0.0673265 0.75194 0.0404968 0.691273C0.0136671 0.630605 -9.53674e-05 0.565565 9.53674e-07 0.499893Z" fill="#E4002B"/>
</svg>