<svg width="24" height="16" viewBox="0 0 24 16" fill="none" xmlns="http://www.w3.org/2000/svg">
<g clip-path="url(#clip0)">
<path d="M0.5 15.5V0.5H23.5V15.5H0.5Z" fill="white" stroke="#E6E6E6"/>
<path d="M10.028 5.26985C10.028 5.47206 10.0533 5.49733 10.066 5.53524C10.0786 5.57316 10.0944 6.2682 9.9901 6.45779C9.88575 6.64738 9.68021 6.75477 9.598 6.77373C9.51578 6.79269 9.25649 6.60944 9.01615 6.53362C8.77583 6.45779 8.78848 6.47043 8.68732 6.47043C8.58616 6.47043 8.35846 6.55571 8.29522 6.60944C8.25411 6.60312 8.24462 6.58417 8.21933 6.60944C8.19406 6.63472 8.09284 6.73582 8.06755 6.79901C8.04225 6.86219 7.97904 7.10233 7.90312 7.12758C7.82723 7.15286 7.62169 7.35819 7.48572 7.36772C7.34978 7.3772 7.3877 7.36141 7.296 7.35509C7.20432 7.34877 7.19481 7.25399 7.10627 7.20344C7.01776 7.15289 6.99244 7.11497 6.99244 7.11497C6.99244 7.11497 6.96714 7.01387 6.9292 7.01387C6.89128 7.01387 6.85333 7.19083 6.85333 7.24138C6.85333 7.29193 6.95449 7.48149 7.00511 7.51938C7.05571 7.55729 7.05571 7.78479 7.03041 7.84795C7.00511 7.91114 7.081 7.97436 7.09362 8.03752C7.10627 8.10071 7.01776 8.15123 7.05571 8.1639C7.09362 8.17651 7.14424 8.25233 7.14424 8.32818C7.14424 8.40401 7.33397 8.42929 7.37191 8.50511C7.40986 8.58094 7.42251 8.70731 7.43516 8.78316C7.4478 8.85899 7.49207 8.82424 7.49837 9.01064C7.55845 9.03908 7.65015 9.09908 7.72604 9.13702C7.80193 9.17493 7.78931 9.26339 7.89047 9.30131C7.99166 9.33919 7.99166 9.30131 8.04225 9.31392C8.09284 9.32656 8.01695 9.33922 8.10549 9.36447C8.19406 9.38974 8.23198 9.35186 8.30789 9.38974C8.38378 9.42766 8.42173 9.51615 8.47232 9.54142C8.52291 9.5667 8.73794 9.62986 8.75058 9.64252C8.76323 9.65513 8.90236 9.70571 8.92766 9.70571C8.95296 9.70571 9.02885 9.65513 9.02885 9.65513C9.02885 9.65513 9.11739 9.68041 9.19328 9.65513C9.26917 9.62989 9.31976 9.55403 9.37035 9.55403C9.42095 9.55403 9.4336 9.57931 9.48419 9.57931C9.53478 9.57931 9.61065 9.55403 9.61065 9.55403C9.61065 9.55403 9.72448 9.52876 9.81302 9.57931C9.90156 9.62989 10.1039 9.87 10.1039 9.9711C10.1039 10.0722 10.0913 10.1228 10.0913 10.1228C10.0913 10.1228 10.1925 10.1101 10.2304 10.1354C10.2684 10.1607 10.2652 10.1133 10.5466 10.1607C10.5277 10.0911 10.2557 9.89528 10.5087 9.61722C10.7616 9.33917 10.7775 9.45293 10.8375 9.40241C10.8976 9.35183 11.1284 9.20331 11.5205 9.33919C11.9 9.27603 11.6217 9.22548 11.8368 9.21284C11.8747 9.19702 11.9475 9.21598 12.0265 9.23812C12.0518 9.1907 12.1056 9.1465 12.1909 9.16227C12.2067 9.11804 12.3111 9.05801 12.4186 9.04855C12.4344 8.96322 12.7064 8.85586 12.8613 8.84633C12.9245 8.78946 12.9973 8.53671 13.3419 8.65676C13.3546 8.57464 13.4115 8.44192 13.5064 8.41665C13.5253 8.24607 13.462 7.90164 13.6328 7.78477C13.8036 7.62996 13.9649 7.66468 14.2526 7.67105C14.4487 7.71213 14.5435 7.86059 14.6067 7.87326C14.67 7.88589 14.6953 7.88589 14.7712 7.83537C14.8471 7.78479 14.7585 7.68369 14.8218 7.68369C14.885 7.68369 14.8597 7.69633 14.9609 7.68369C15.0621 7.67108 15.0494 7.6363 15.1127 7.62053C15.2139 7.67111 15.3277 7.63314 15.3783 7.67108C15.4289 7.70897 15.4352 7.70581 15.5427 7.72163C15.5806 7.78479 15.6818 7.78479 15.6818 7.78479C15.6818 7.78479 15.606 7.75952 15.6313 7.72163C15.6566 7.68372 15.6313 7.56995 15.5806 7.5194C15.5301 7.46885 15.5048 7.45621 15.4668 7.40569C15.4289 7.35514 15.4795 7.35511 15.4162 7.29195C15.353 7.22876 15.2139 7.16558 15.1759 7.08975C15.138 7.01392 15.1506 6.96337 15.0874 6.90019C15.0242 6.837 14.7712 6.62216 14.7585 6.39468C14.7459 6.1672 14.7712 5.94923 14.923 5.87654C14.9166 5.74384 14.9483 5.72489 15.0874 5.64906C15.2265 5.57324 15.2392 5.62379 15.3277 5.62379C15.4162 5.62379 15.4669 5.63642 15.5554 5.57326C15.6439 5.51007 15.568 5.37106 15.7957 5.16886C16.0234 4.96666 16.1119 4.86556 16.1878 4.85292C16.2637 4.84028 16.5388 4.64756 16.6558 4.66335C16.738 4.56544 16.8202 4.44851 16.9214 4.37269C17.0226 4.29686 17.1365 4.29686 17.187 4.23367C17.2376 4.17049 17.225 4.05672 17.3768 3.95562C17.5285 3.85455 17.655 3.79136 17.7183 3.74078C17.7815 3.69023 17.9206 3.72814 17.9712 3.67759C18.0218 3.62704 18.0218 3.43748 18.0724 3.39957C18.123 3.36165 17.908 3.48803 17.7942 3.53858C17.6803 3.58913 17.5159 3.67759 17.3768 3.66496C17.2376 3.65232 17.3135 3.74075 17.2376 3.76606C17.1617 3.79133 17.0353 3.77869 16.9846 3.82924C16.934 3.87979 16.8455 4.00617 16.7696 4.05672C16.6937 4.10725 16.6558 4.09463 16.5799 4.13255C16.504 4.17046 16.4408 4.20837 16.3775 4.23365C16.3143 4.25892 16.1245 4.24629 16.1245 4.24629C16.1245 4.24629 15.9601 4.46113 15.8842 4.53695C15.8083 4.61278 15.7198 4.60014 15.6439 4.63805C15.568 4.67594 14.923 5.09301 14.4803 5.15619C14.0376 5.21936 14.2399 5.11828 14.1008 5.15619C13.9617 5.19411 13.7593 5.45947 13.5949 5.47214C13.4305 5.48477 13.3799 5.47214 13.3419 5.47214C13.304 5.47214 13.1016 5.59851 12.9751 5.57324C12.7886 5.63011 12.6495 5.61747 12.5957 5.61112C12.5419 5.60483 12.4439 5.67431 12.3048 5.61112C12.1973 5.5764 12.1973 5.65219 11.9886 5.58587C11.7799 5.51953 11.6344 5.61115 11.5332 5.5606C11.432 5.51005 11.4447 5.47214 11.3688 5.47214C11.2929 5.47214 11.2929 5.52269 11.2044 5.52269C11.1158 5.52269 11.1032 5.47214 11.0273 5.47214C10.9514 5.47214 10.8629 5.52269 10.749 5.51005C10.6352 5.49741 10.5972 5.44686 10.5214 5.44686C10.4454 5.44678 10.028 5.26985 10.028 5.26985Z" fill="#ED8000"/>
<path d="M11.3221 12.9898C11.5417 12.8318 11.7349 12.7791 12.0335 12.7265C12.3322 12.6738 12.6484 12.5861 12.8153 12.5422C12.9821 12.4983 12.2531 12.7528 12.0687 12.8055C11.8842 12.8581 11.3221 12.9898 11.3221 12.9898Z" fill="#006651"/>
<path d="M12.5255 12.5245C12.464 12.1471 12.6133 11.7522 12.9558 11.5942C13.0348 11.8663 12.789 12.3314 12.5255 12.5245Z" fill="#006651"/>
<path d="M13.1038 12.3281C12.9207 12.0155 13.2307 11.6122 13.4578 11.4146C13.5619 11.603 13.3774 12.1646 13.1038 12.3281Z" fill="#006651"/>
<path d="M13.641 12.0856C13.4452 11.8175 13.6761 11.3484 13.922 11.1641C14.0186 11.4274 13.922 11.9013 13.641 12.0856Z" fill="#006651"/>
<path d="M14.1782 11.7503C14.0011 11.4975 14.1241 11.1026 14.3788 10.8481C14.5632 11.0588 14.4051 11.5151 14.1782 11.7503Z" fill="#006651"/>
<path d="M14.6072 11.4097C14.4579 11.1728 14.6424 10.6023 14.8795 10.4443C14.985 10.655 14.9059 11.2518 14.6072 11.4097Z" fill="#006651"/>
<path d="M14.9497 11.3223C14.9058 10.9801 15.5032 10.6027 15.7491 10.6115C15.7227 10.8923 15.468 11.1995 14.9497 11.3223Z" fill="#006651"/>
<path d="M14.616 11.7081C14.897 11.4185 15.4416 11.4185 15.6348 11.4799C15.5821 11.6467 14.941 12.0152 14.616 11.7081Z" fill="#006651"/>
<path d="M14.2294 11.9982C14.6247 11.8929 14.8794 11.8051 15.1166 12.0509C14.9497 12.2615 14.3085 12.2001 14.2294 11.9982Z" fill="#006651"/>
<path d="M13.6674 12.2521C14.045 12.0502 14.5018 12.3486 14.5721 12.5242C14.1504 12.6998 13.6586 12.296 13.6674 12.2521Z" fill="#006651"/>
<path d="M13.1491 12.5418C13.4917 12.4102 13.8869 12.5857 14.045 12.7788C13.8606 12.8665 13.3775 12.963 13.1491 12.5418Z" fill="#006651"/>
<path d="M12.6749 12.6909C13.0701 12.647 13.4493 12.9459 13.532 13.1168C13.0261 13.1648 12.833 13.0156 12.6749 12.6909Z" fill="#006651"/>
<path d="M12.5474 12.9898C12.3278 12.8318 12.1346 12.7791 11.836 12.7265C11.5373 12.6738 11.2211 12.5861 11.0542 12.5422C10.8874 12.4983 11.6164 12.7528 11.8008 12.8055C11.9853 12.8581 12.5474 12.9898 12.5474 12.9898Z" fill="#006651"/>
<path d="M11.3441 12.5245C11.4056 12.1471 11.2563 11.7522 10.9137 11.5942C10.8347 11.8663 11.0806 12.3314 11.3441 12.5245Z" fill="#006651"/>
<path d="M10.7657 12.3281C10.9489 12.0155 10.6389 11.6122 10.4118 11.4146C10.3077 11.603 10.4921 12.1646 10.7657 12.3281Z" fill="#006651"/>
<path d="M10.2286 12.0856C10.4244 11.8175 10.1935 11.3484 9.9475 11.1641C9.85089 11.4274 9.9475 11.9013 10.2286 12.0856Z" fill="#006651"/>
<path d="M9.69136 11.7503C9.86852 11.4975 9.74551 11.1026 9.4908 10.8481C9.30634 11.0588 9.46445 11.5151 9.69136 11.7503Z" fill="#006651"/>
<path d="M9.26236 11.4097C9.41166 11.1728 9.22721 10.6023 8.99006 10.4443C8.88466 10.655 8.96371 11.2518 9.26236 11.4097Z" fill="#006651"/>
<path d="M8.91982 11.3223C8.96372 10.9801 8.36639 10.6027 8.12048 10.6115C8.14683 10.8923 8.4016 11.1995 8.91982 11.3223Z" fill="#006651"/>
<path d="M9.25362 11.7081C8.97256 11.4185 8.428 11.4185 8.23474 11.4799C8.28744 11.6467 8.92861 12.0152 9.25362 11.7081Z" fill="#006651"/>
<path d="M9.64011 11.9982C9.24485 11.8929 8.99009 11.8051 8.75293 12.0509C8.91984 12.2615 9.56106 12.2001 9.64011 11.9982Z" fill="#006651"/>
<path d="M10.2022 12.2521C9.82456 12.0502 9.3678 12.3486 9.29755 12.5242C9.71915 12.6998 10.211 12.296 10.2022 12.2521Z" fill="#006651"/>
<path d="M10.7205 12.5418C10.378 12.4102 9.98269 12.5857 9.82458 12.7788C10.009 12.8665 10.4922 12.963 10.7205 12.5418Z" fill="#006651"/>
<path d="M11.1948 12.6909C10.7995 12.647 10.4202 12.9459 10.3376 13.1168C10.8434 13.1648 11.0367 13.0156 11.1948 12.6909Z" fill="#006651"/>
</g>
<defs>
<clipPath id="clip0">
<rect width="24" height="16" fill="white"/>
</clipPath>
</defs>
</svg>
