<svg width="12" height="8" viewBox="0 0 12 8" fill="none" xmlns="http://www.w3.org/2000/svg">
<path d="M9.92973 0H7.30273V1.801L9.92973 0Z" fill="#0052B4"/>
<path d="M11.6841 2.50003V1.20203L9.79028 2.50003H11.6841Z" fill="#0052B4"/>
<path d="M11.6746 7.99999H11.6846V7.98499L11.6746 7.99999Z" fill="#0052B4"/>
<path d="M7.30273 8.00006H9.95116L7.30273 6.18506V8.00006Z" fill="#0052B4"/>
<path d="M11.6842 6.783V5.5H9.81177L11.6842 6.783Z" fill="#0052B4"/>
<path d="M1.73315 8.00006H4.38158V6.18506L1.73315 8.00006Z" fill="#0052B4"/>
<path d="M0 5.5V6.783L1.87239 5.5H0Z" fill="#0052B4"/>
<path d="M0 7.99999H0.01L0 7.98499V7.99999Z" fill="#0052B4"/>
<path d="M0 1.20203V2.50003H1.89382L0 1.20203Z" fill="#0052B4"/>
<path d="M4.38164 0H1.75464L4.38164 1.801V0Z" fill="#0052B4"/>
<path d="M7.30273 2.5H8.91418L11.6843 0.601V0H10.807L7.30273 2.401V2.5Z" fill="#D80027"/>
<path d="M4.38158 2.5V2.401L0.877289 0H0V0.601L2.77013 2.5H4.38158Z" fill="#D80027"/>
<path d="M11.6843 7.384L8.9356 5.5H7.30273V5.584L10.8284 8H11.6746L11.6843 7.985V7.384Z" fill="#D80027"/>
<path d="M4.38158 5.5H2.74871L0 7.384V7.985L0.00973684 8H0.855868L4.38158 5.584V5.5Z" fill="#D80027"/>
<path d="M6.81579 5H11.6842V3H6.81579V0H4.86842V3H0V5H4.86842V8H6.81579V5Z" fill="#D80027"/>
<path d="M7.30252 5.5H8.93538L11.6841 7.384V6.783L9.8117 5.5H11.6841V5H6.81567V8H7.30252V6.185L9.95094 8H10.8282L7.30252 5.584V5.5Z" fill="white"/>
<path d="M6.81567 3H11.6841V2.5H9.79028L11.6841 1.202V0.601L8.91396 2.5H7.30252V2.401L10.8068 0H9.92952L7.30252 1.801V0H6.81567V3Z" fill="white"/>
<path d="M4.86842 3V0H4.38158V1.801L1.75458 0H0.877289L4.38158 2.401V2.5H2.77013L0 0.601V1.202L1.89382 2.5H0V3H4.86842Z" fill="white"/>
<path d="M4.86842 5H0V5.5H1.87239L0 6.783V7.384L2.74871 5.5H4.38158V5.584L0.855868 8H1.73316L4.38158 6.185V8H4.86842V5Z" fill="white"/>
</svg>
