<svg width="25" height="24" viewBox="0 0 25 24" fill="none" xmlns="http://www.w3.org/2000/svg">
<path d="M12.8459 24C19.4734 24 24.8459 18.6274 24.8459 12C24.8459 5.37258 19.4734 0 12.8459 0C6.21853 0 0.845947 5.37258 0.845947 12C0.845947 18.6274 6.21853 24 12.8459 24Z" fill="#41B4E6"/>
<path d="M10.6808 13.748L16.1038 17.843L18.8408 6.15698L4.85083 11.661L9.10783 13.071L16.8768 7.85898L10.6808 13.748Z" fill="white"/>
<path d="M9.10791 13.0709L10.2739 17.2659L10.6809 13.7479L16.8769 7.85889L9.10791 13.0709Z" fill="#D2D2D7"/>
<path d="M12.4429 15.079L10.2739 17.266L10.6809 13.748L12.4429 15.079Z" fill="#B9B9BE"/>
</svg>
