<svg width="80" height="80" viewBox="0 0 80 80" fill="none" xmlns="http://www.w3.org/2000/svg">
<path d="M40 1C47.7135 1 55.2537 3.28731 61.6673 7.57269C68.0808 11.8581 73.0795 17.949 76.0313 25.0753C78.9831 32.2017 79.7555 40.0433 78.2506 47.6085C76.7458 55.1738 73.0314 62.1229 67.5772 67.5772C62.1229 73.0314 55.1738 76.7458 47.6085 78.2506C40.0433 79.7554 32.2017 78.9831 25.0754 76.0313C17.949 73.0795 11.8581 68.0808 7.5727 61.6672C3.28733 55.2537 1.00002 47.7135 1.00002 40C1.01169 29.6601 5.12436 19.7471 12.4357 12.4357C19.7471 5.12434 29.6602 1.01167 40 1ZM40 0C32.0888 0 24.3552 2.34596 17.7772 6.74122C11.1992 11.1365 6.07234 17.3836 3.04484 24.6927C0.0173314 32.0017 -0.774802 40.0444 0.768607 47.8036C2.31202 55.5629 6.12165 62.6902 11.7157 68.2843C17.3098 73.8784 24.4372 77.688 32.1964 79.2314C39.9556 80.7748 47.9983 79.9827 55.3074 76.9552C62.6164 73.9277 68.8635 68.8008 73.2588 62.2228C77.6541 55.6448 80 47.9113 80 40C80 29.3913 75.7857 19.2172 68.2843 11.7157C60.7828 4.21427 50.6087 0 40 0V0Z" fill="#D9D9D9"/>
<path d="M55 23C57.4853 23 59.5 20.9853 59.5 18.5C59.5 16.0147 57.4853 14 55 14C52.5147 14 50.5 16.0147 50.5 18.5C50.5 20.9853 52.5147 23 55 23Z" stroke="#E4002B" stroke-width="2" stroke-miterlimit="10"/>
<path d="M60 34V65H50V34" stroke="#E4002B" stroke-width="2" stroke-linecap="round" stroke-linejoin="round"/>
<path d="M60 46H64V32.8333C64 31.021 63.2801 29.2829 61.9986 28.0014C60.7171 26.7199 58.979 26 57.1667 26H52.8333C51.9359 26 51.0474 26.1767 50.2183 26.5202C49.3893 26.8636 48.636 27.3669 48.0014 28.0014C47.3669 28.636 46.8636 29.3893 46.5202 30.2183C46.1767 31.0474 46 31.9359 46 32.8333V46H50" stroke="#E4002B" stroke-width="2" stroke-linecap="round" stroke-linejoin="round"/>
<path d="M55 51V65" stroke="#E4002B" stroke-width="2" stroke-linecap="round" stroke-linejoin="round"/>
<path d="M24 28C26.4853 28 28.5 25.9853 28.5 23.5C28.5 21.0147 26.4853 19 24 19C21.5147 19 19.5 21.0147 19.5 23.5C19.5 25.9853 21.5147 28 24 28Z" stroke="#E4002B" stroke-width="2" stroke-miterlimit="10"/>
<path d="M39 52C40.933 52 42.5 50.433 42.5 48.5C42.5 46.567 40.933 45 39 45C37.067 45 35.5 46.567 35.5 48.5C35.5 50.433 37.067 52 39 52Z" stroke="#E4002B" stroke-width="2" stroke-miterlimit="10"/>
<path d="M28 52V65H20V52" stroke="#E4002B" stroke-width="2" stroke-linecap="round" stroke-linejoin="round"/>
<path d="M29.4444 47H32V37.8333C32 34.0594 29.2805 31 25.9259 31H22.0741C18.72 31 16 34.0594 16 37.8333V47H18.5556" stroke="#E4002B" stroke-width="2" stroke-linecap="round" stroke-linejoin="round"/>
<path d="M24 52V65" stroke="#E4002B" stroke-width="2" stroke-linecap="round" stroke-linejoin="round"/>
<path d="M20 38L18.333 52H30.25L28 38" stroke="#E4002B" stroke-width="2" stroke-linecap="round" stroke-linejoin="round"/>
<path d="M32.167 47L37.417 52H40.75L46 46H49.571L43 56.083V65H35L34.917 56.5L29.611 47H32.167Z" stroke="#E4002B" stroke-width="2" stroke-linecap="round" stroke-linejoin="round"/>
<path d="M38.9583 58V65.1667" stroke="#E4002B" stroke-width="2" stroke-linecap="round" stroke-linejoin="round"/>
</svg>
