<svg width="80" height="80" viewBox="0 0 80 80" fill="none" xmlns="http://www.w3.org/2000/svg">
<path d="M40 1C47.7135 1 55.2537 3.28731 61.6673 7.57269C68.0808 11.8581 73.0795 17.949 76.0313 25.0753C78.9831 32.2017 79.7555 40.0433 78.2506 47.6085C76.7458 55.1738 73.0314 62.1229 67.5772 67.5772C62.1229 73.0314 55.1738 76.7458 47.6085 78.2506C40.0433 79.7554 32.2017 78.9831 25.0754 76.0313C17.949 73.0795 11.8581 68.0808 7.5727 61.6672C3.28733 55.2537 1.00002 47.7135 1.00002 40C1.01169 29.6601 5.12436 19.7471 12.4357 12.4357C19.7471 5.12434 29.6602 1.01167 40 1ZM40 0C32.0888 0 24.3552 2.34596 17.7772 6.74122C11.1992 11.1365 6.07234 17.3836 3.04484 24.6927C0.0173314 32.0017 -0.774802 40.0444 0.768607 47.8036C2.31202 55.5629 6.12165 62.6902 11.7157 68.2843C17.3098 73.8784 24.4372 77.688 32.1964 79.2314C39.9556 80.7748 47.9983 79.9827 55.3074 76.9552C62.6164 73.9277 68.8635 68.8008 73.2588 62.2228C77.6541 55.6448 80 47.9113 80 40C80 29.3913 75.7857 19.2172 68.2843 11.7157C60.7828 4.21427 50.6087 0 40 0V0Z" fill="#D9D9D9"/>
<path d="M14 45H22V56H14" stroke="#E4002B" stroke-width="2" stroke-linecap="round" stroke-linejoin="round"/>
<path d="M28 43H24C22.8954 43 22 43.8954 22 45V56C22 57.1046 22.8954 58 24 58H28C29.1046 58 30 57.1046 30 56V45C30 43.8954 29.1046 43 28 43Z" stroke="#E4002B" stroke-width="2" stroke-linecap="round" stroke-linejoin="round"/>
<path d="M27 53H25V55H27V53Z" fill="#E4002B"/>
<path d="M30 45H33.1691C36.9846 45 40.7283 46.037 44 48H53C53.5304 48 54.0391 48.2107 54.4142 48.5858C54.7893 48.9609 55 49.4696 55 50C55 50.5304 54.7893 51.0391 54.4142 51.4142C54.0391 51.7893 53.5304 52 53 52H43" stroke="#E4002B" stroke-width="2" stroke-miterlimit="10"/>
<path d="M53 52.0005L63.117 48.6282C63.6396 48.454 64.2075 48.4741 64.7165 48.6849C65.2255 48.8957 65.6413 49.2831 65.8877 49.7758V49.7758C66.0293 50.0589 66.1106 50.3683 66.1264 50.6845C66.1423 51.0007 66.0924 51.3167 65.9799 51.6126C65.8674 51.9085 65.6948 52.1778 65.4729 52.4036C65.2509 52.6293 64.9846 52.8066 64.6907 52.9242L47 60.0005H40L30 55.4172" stroke="#E4002B" stroke-width="2" stroke-miterlimit="10"/>
<path d="M50 42C57.732 42 64 35.732 64 28C64 20.268 57.732 14 50 14C42.268 14 36 20.268 36 28C36 35.732 42.268 42 50 42Z" stroke="#E4002B" stroke-width="2" stroke-miterlimit="10"/>
<path d="M50 37C54.9706 37 59 32.9706 59 28C59 23.0294 54.9706 19 50 19C45.0294 19 41 23.0294 41 28C41 32.9706 45.0294 37 50 37Z" stroke="#E4002B" stroke-width="2" stroke-miterlimit="10"/>
</svg>
