<svg width="80" height="80" viewBox="0 0 80 80" fill="none" xmlns="http://www.w3.org/2000/svg">
<path d="M40 1C47.7135 1 55.2537 3.28731 61.6672 7.57269C68.0807 11.8581 73.0795 17.949 76.0313 25.0753C78.9831 32.2017 79.7554 40.0433 78.2506 47.6085C76.7458 55.1738 73.0314 62.1229 67.5771 67.5772C62.1229 73.0314 55.1738 76.7458 47.6085 78.2506C40.0433 79.7554 32.2017 78.9831 25.0753 76.0313C17.949 73.0795 11.858 68.0808 7.57267 61.6672C3.2873 55.2537 0.999987 47.7135 0.999987 40C1.01169 29.6601 5.12436 19.7471 12.4357 12.4358C19.7471 5.12437 29.6601 1.0117 40 1ZM40 0C32.0887 0 24.3551 2.34596 17.7772 6.74122C11.1992 11.1365 6.07231 17.3836 3.04481 24.6927C0.0173008 32.0017 -0.774833 40.0444 0.768576 47.8036C2.31199 55.5629 6.12162 62.6902 11.7157 68.2843C17.3098 73.8784 24.4371 77.688 32.1964 79.2314C39.9556 80.7748 47.9983 79.9827 55.3073 76.9552C62.6164 73.9277 68.8635 68.8008 73.2588 62.2228C77.654 55.6448 80 47.9113 80 40C80 29.3913 75.7857 19.2172 68.2843 11.7157C60.7828 4.21427 50.6087 0 40 0V0Z" fill="#D9D9D9"/>
<path d="M55 16H25C25 17.3261 24.4732 18.5979 23.5355 19.5355C22.5979 20.4732 21.3261 21 20 21V41C20 59 40 67 40 67C40 67 60 59 60 41V21C58.6739 21 57.4021 20.4732 56.4645 19.5355C55.5268 18.5979 55 17.3261 55 16Z" stroke="#E4002B" stroke-width="2" stroke-linecap="round" stroke-linejoin="round"/>
<path d="M50.7845 22C51.6242 23.2812 52.7188 24.3758 54 25.2155V41C54 51.5465 44.2137 58.03 39.9884 60.3346C35.768 58.05 26 51.609 26 41V25.2155C27.2812 24.3758 28.3758 23.2812 29.2155 22H50.7845ZM51.9385 20H28.0615C27.1837 21.7583 25.7583 23.1837 24 24.0615V41C24 53.46 35.76 60.4727 39.9922 62.5918C44.21 60.4609 56 53.3926 56 41V24.0615C54.2417 23.1837 52.8163 21.7583 51.9385 20Z" fill="#E4002B"/>
<path d="M31.25 39L37.083 44.833L48.75 33.167" stroke="#E4002B" stroke-width="2" stroke-linecap="round" stroke-linejoin="round"/>
</svg>
