<svg xmlns="http://www.w3.org/2000/svg" width="80" height="80" viewBox="0 0 80 80">
  <defs>
    <style>
      .cls-1 {
        fill: #e6e6e6;
      }

      .cls-2 {
        fill: none;
        stroke: #e4002b;
        stroke-linecap: round;
        stroke-linejoin: round;
        stroke-width: 2px;
      }
    </style>
  </defs>
  <title>Icons</title>
  <g id="grey_circle" data-name="grey circle">
    <path class="cls-1" d="M40,1A39,39,0,1,1,1,40,39.0441,39.0441,0,0,1,40,1m0-1A40,40,0,1,0,80,40,40,40,0,0,0,40,0Z"/>
  </g>
  <g id="graphic">
    <g>
      <ellipse class="cls-2" cx="40" cy="40" rx="10" ry="5"/>
      <path class="cls-2" d="M50,45v5c0,2.7614-4.4772,5-10,5s-10-2.2386-10-5V45"/>
      <path class="cls-2" d="M50,40v5c0,2.7614-4.4772,5-10,5s-10-2.2386-10-5V40"/>
      <ellipse class="cls-2" cx="20" cy="46" rx="10" ry="5"/>
      <path class="cls-2" d="M30,46v5c0,2.7614-4.4772,5-10,5s-10-2.2386-10-5V46"/>
      <ellipse class="cls-2" cx="60" cy="30" rx="10" ry="5"/>
      <path class="cls-2" d="M70,45v5c0,2.7614-4.4772,5-10,5s-10-2.2386-10-5V45"/>
      <path class="cls-2" d="M70,40v5c0,2.7614-4.4772,5-10,5s-10-2.2386-10-5V40"/>
      <path class="cls-2" d="M70,35v5c0,2.7614-4.4772,5-10,5s-10-2.2386-10-5V35"/>
      <path class="cls-2" d="M70,30v5c0,2.7614-4.4772,5-10,5s-10-2.2386-10-5V30"/>
    </g>
  </g>
</svg>
