<svg width="80" height="80" viewBox="0 0 80 80" fill="none" xmlns="http://www.w3.org/2000/svg">
<path d="M40 1C47.7135 1 55.2537 3.28731 61.6673 7.57269C68.0808 11.8581 73.0795 17.949 76.0313 25.0753C78.9831 32.2017 79.7555 40.0433 78.2506 47.6085C76.7458 55.1738 73.0314 62.1229 67.5772 67.5772C62.1229 73.0314 55.1738 76.7458 47.6085 78.2506C40.0433 79.7554 32.2017 78.9831 25.0754 76.0313C17.949 73.0795 11.8581 68.0808 7.5727 61.6672C3.28733 55.2537 1.00002 47.7135 1.00002 40C1.01172 29.6601 5.12439 19.7471 12.4358 12.4358C19.7472 5.12437 29.6602 1.0117 40 1ZM40 0C32.0888 0 24.3552 2.34596 17.7772 6.74122C11.1992 11.1365 6.07234 17.3836 3.04484 24.6927C0.0173314 32.0017 -0.774802 40.0444 0.768607 47.8036C2.31202 55.5629 6.12165 62.6902 11.7157 68.2843C17.3098 73.8784 24.4372 77.688 32.1964 79.2314C39.9556 80.7748 47.9983 79.9827 55.3074 76.9552C62.6164 73.9277 68.8635 68.8008 73.2588 62.2228C77.6541 55.6448 80 47.9113 80 40C80 29.3913 75.7857 19.2172 68.2843 11.7157C60.7828 4.21427 50.6087 0 40 0V0Z" fill="#D9D9D9"/>
<path d="M23 19H50C51.0609 19 52.0783 19.4214 52.8284 20.1716C53.5786 20.9217 54 21.9391 54 23V61C54 62.0609 53.5786 63.0783 52.8284 63.8284C52.0783 64.5786 51.0609 65 50 65H23V19Z" stroke="#E4002B" stroke-width="2" stroke-linecap="round" stroke-linejoin="round"/>
<path d="M27 19V15H54.41C54.8814 15 55.3483 15.0929 55.7838 15.2733C56.2194 15.4537 56.6152 15.7181 56.9485 16.0515C57.2819 16.3848 57.5463 16.7806 57.7267 17.2162C57.9071 17.6517 58 18.1186 58 18.59V58.18C58.0031 58.6484 57.9139 59.1127 57.7375 59.5466C57.5612 59.9805 57.3011 60.3754 56.9721 60.7088C56.6431 61.0421 56.2517 61.3074 55.8201 61.4895C55.3886 61.6716 54.9255 61.7669 54.4571 61.77" stroke="#E4002B" stroke-width="2" stroke-linecap="round" stroke-linejoin="round"/>
<path d="M28 55H49" stroke="#E4002B" stroke-width="2" stroke-linecap="round" stroke-linejoin="round"/>
<path d="M38.5 48C44.299 48 49 43.299 49 37.5C49 31.701 44.299 27 38.5 27C32.701 27 28 31.701 28 37.5C28 43.299 32.701 48 38.5 48Z" stroke="#E4002B" stroke-width="2" stroke-linecap="round" stroke-linejoin="round"/>
</svg>
