<svg width="188" height="36" viewBox="0 0 188 36" fill="none" xmlns="http://www.w3.org/2000/svg">
  <rect width="187.714" height="36" fill="black" fill-opacity="0"/>
  <rect width="187.714" height="36" fill="black" fill-opacity="0"/>
  <rect width="35.9363" height="36" fill="black" fill-opacity="0"/>
  <path d="M13.4622 35.7102C13.9072 35.8217 14.3522 35.9108 14.8195 36L17.957 26.883L21.0944 36C21.5617 35.9108 22.0068 35.8217 22.4518 35.7102L18.0237 22.8483C17.957 22.8483 17.957 22.8483 17.868 22.8483L13.4622 35.7102Z" fill="#E4002B"/>
  <path d="M31.0632 25.5901L34.0672 26.6378C34.2897 26.2365 34.49 25.813 34.668 25.3895L20.5605 20.5077C20.516 20.5523 20.516 20.5523 20.4492 20.6192L25.3001 34.7517C25.7228 34.5734 26.1456 34.3728 26.5462 34.1498L25.5003 31.1406C27.7922 29.7808 29.7281 27.8638 31.0632 25.5901ZM22.6299 22.67L29.7281 25.122C28.571 27.0167 26.9689 28.6217 25.0775 29.7808L22.6299 22.67Z" fill="#E4002B"/>
  <path d="M22.474 0.289783C22.029 0.178328 21.5839 0.0891641 21.1167 0L17.9792 9.11703L14.8417 0C14.3744 0.0891641 13.9294 0.178328 13.4844 0.289783L17.9124 13.1517C17.9792 13.1517 17.9792 13.1517 18.0682 13.1517L22.474 0.289783Z" fill="#E4002B"/>
  <path d="M0.28927 13.4861C0.178013 13.9319 0.0890063 14.3777 0 14.8458L9.10089 17.9889L0 21.1542C0.0890063 21.6223 0.178013 22.0681 0.28927 22.5139L13.1284 18.078C13.1284 18.0112 13.1284 18.0112 13.1284 17.922L0.28927 13.4861Z" fill="#E4002B"/>
  <path d="M35.647 22.5139C35.7583 22.0681 35.8473 21.6223 35.9363 21.1542L26.8354 18.0111L35.9363 14.8681C35.8473 14.4 35.7583 13.9542 35.647 13.5084L22.8079 17.9443C22.8079 18.0111 22.8079 18.0111 22.8079 18.1003L35.647 22.5139Z" fill="#E4002B"/>
  <path d="M1.26831 25.3672C1.44632 25.7907 1.64659 26.2142 1.8691 26.6155L4.87307 25.5678C6.20816 27.8638 8.09954 29.7585 10.3915 31.096L9.34563 34.1053C9.74616 34.3282 10.1689 34.5288 10.5917 34.7071L15.4426 20.5746C15.3981 20.53 15.3981 20.53 15.3313 20.4632L1.26831 25.3672ZM6.20816 25.122L13.3064 22.67L10.8587 29.7808C8.96736 28.6217 7.36524 27.039 6.20816 25.122Z" fill="#E4002B"/>
  <path d="M10.614 1.2706C10.1912 1.44893 9.76841 1.64955 9.36788 1.87246L10.4137 4.88174C8.1218 6.19691 6.20816 8.13623 4.87307 10.4322L1.8691 9.40682C1.64659 9.80806 1.44632 10.2316 1.26831 10.6551L15.3758 15.5369C15.4203 15.4923 15.4203 15.4923 15.4871 15.4254L10.614 1.2706ZM10.8587 6.21921L13.3064 13.3523L6.18591 10.9003C7.36524 9.00558 8.96736 7.37834 10.8587 6.21921Z" fill="#E4002B"/>
  <path d="M34.668 10.6551C34.49 10.2316 34.2897 9.80806 34.0672 9.40682L31.0632 10.4322C29.7281 8.11394 27.8367 6.21921 25.5226 4.88174L26.5684 1.87246C26.1679 1.64955 25.7451 1.44893 25.3223 1.2706L20.4492 15.4254C20.4937 15.47 20.4937 15.47 20.5605 15.5369L34.668 10.6551ZM29.7281 10.9003L22.6076 13.3523L25.0553 6.21921C26.9912 7.37834 28.571 8.98329 29.7281 10.9003Z" fill="#E4002B"/>
  <rect width="142.455" height="27.3957" fill="black" fill-opacity="0" transform="translate(45.2598 4.30215)"/>
  <rect width="115.063" height="27.3957" fill="black" fill-opacity="0" transform="translate(72.6514 4.30215)"/>
  <path d="M72.6514 27.9529L74.4315 26.3257C75.7443 27.9529 78.0362 29.4464 80.9512 29.4464C84.6005 29.4464 87.0481 27.6409 87.0481 24.8545C87.0481 21.8675 85.2013 20.4854 82.1528 19.1257L79.3268 17.922C75.2548 16.1833 73.6304 13.8427 73.6304 10.6105C73.6304 6.79875 77.391 4.30215 81.2405 4.30215C84.4002 4.30215 87.0481 5.72878 88.6948 7.69039L86.9591 9.31763C85.5573 7.6681 83.8662 6.53126 81.1292 6.53126C78.3478 6.53126 75.9669 8.11392 75.9669 10.7666C75.9669 12.9957 77.0572 14.5114 80.1056 15.782L82.9316 16.9857C86.5364 18.5238 89.4068 20.6861 89.4068 24.5201C89.4068 28.6217 86.2916 31.6978 80.929 31.6978C77.2574 31.6978 74.1645 29.7808 72.6514 27.9529Z" fill="black"/>
  <path d="M99.3978 6.84333H91.8323V4.61423H109.344V6.84333H101.734V31.408H99.3978V6.84333Z" fill="black"/>
  <path d="M110.702 18.0111C110.702 10.2316 116.687 4.32443 124.364 4.32443C132.041 4.32443 138.027 10.2538 138.027 18.0111C138.027 25.7684 132.041 31.6978 124.364 31.6978C116.687 31.6978 110.702 25.7684 110.702 18.0111ZM135.623 18.0111C135.623 11.5244 130.795 6.53124 124.364 6.53124C117.933 6.53124 113.105 11.5021 113.105 18.0111C113.105 24.4978 117.933 29.4687 124.364 29.4687C130.795 29.4687 135.623 24.4978 135.623 18.0111Z" fill="black"/>
  <path d="M170.959 27.9529L172.739 26.3257C174.052 27.9529 176.344 29.4464 179.259 29.4464C182.908 29.4464 185.356 27.6409 185.356 24.8545C185.356 21.8675 183.509 20.4854 180.46 19.1257L177.634 17.922C173.562 16.1833 171.938 13.8427 171.938 10.6105C171.938 6.79875 175.698 4.30215 179.548 4.30215C182.708 4.30215 185.356 5.72878 187.002 7.69039L185.266 9.31763C183.865 7.6681 182.174 6.53126 179.437 6.53126C176.655 6.53126 174.274 8.11392 174.274 10.7666C174.274 12.9957 175.365 14.5114 178.413 15.782L181.239 16.9857C184.844 18.5238 187.714 20.6861 187.714 24.5201C187.714 28.6217 184.599 31.6978 179.236 31.6978C175.543 31.6978 172.45 29.7808 170.959 27.9529Z" fill="black"/>
  <path d="M163.527 4.61423V25.9244L143.879 4.61423H143.612V31.3857H145.948V10.0755L165.596 31.3857H165.863V4.61423H163.527Z" fill="black"/>
  <rect width="25.7896" height="26.7715" fill="black" fill-opacity="0" transform="translate(45.2598 4.61423)"/>
  <path d="M58.2769 4.61423L71.0493 31.3857H68.6017L64.6854 23.2049H51.5792L47.7074 31.3857H45.2598L57.9877 4.61423C58.1212 4.61423 58.1434 4.61423 58.2769 4.61423ZM52.625 20.9758H63.6173L58.1212 9.38451L52.625 20.9758Z" fill="black"/>
</svg>