<svg width="24" height="24" viewBox="0 0 24 24" fill="none" xmlns="http://www.w3.org/2000/svg">
<path d="M12 24C18.6274 24 24 18.6274 24 12C24 5.37258 18.6274 0 12 0C5.37258 0 0 5.37258 0 12C0 18.6274 5.37258 24 12 24Z" fill="#E4002B"/>
<path d="M17.9939 15.4706C18.0075 15.5634 17.9984 15.6581 17.9674 15.7467C17.9364 15.8352 17.8845 15.9149 17.816 15.979L16.1262 17.6569C16.0417 17.7477 15.9403 17.821 15.8277 17.8729C15.7136 17.9295 15.5915 17.9681 15.4656 17.9874C15.4571 17.9874 15.4316 17.9895 15.3893 17.9937C15.3469 17.9979 15.292 18 15.2241 18C14.9622 17.9899 14.7012 17.9623 14.4429 17.9173C13.9881 17.8338 13.5446 17.6973 13.1216 17.5106C12.5024 17.241 11.9092 16.9154 11.3491 16.538C10.586 16.02 9.87919 15.4235 9.24016 14.7584C8.7048 14.2394 8.21197 13.6783 7.76641 13.0804C7.41717 12.6105 7.10292 12.1155 6.82619 11.5995C6.61395 11.2043 6.43545 10.7918 6.2926 10.3665C6.18835 10.0552 6.10764 9.73649 6.05116 9.4131C6.01326 9.20559 5.99634 8.99478 6.00066 8.78387C6.00907 8.63133 6.01328 8.54657 6.01328 8.5296C6.03253 8.40367 6.07111 8.28148 6.12766 8.16734C6.1795 8.05464 6.25289 7.95317 6.34367 7.86867L8.03343 6.17803C8.08549 6.1222 8.14841 6.0776 8.21833 6.047C8.28825 6.01639 8.36369 6.00042 8.44001 6.00006C8.54527 5.99844 8.64806 6.03198 8.73214 6.09536C8.81782 6.15999 8.89101 6.23969 8.94815 6.33055L10.3072 8.91126C10.3834 9.04636 10.4061 9.20516 10.3708 9.3562C10.3406 9.51021 10.2655 9.6518 10.1548 9.76299L9.53223 10.3858C9.51143 10.4097 9.49623 10.4379 9.48773 10.4684C9.47652 10.4991 9.47013 10.5312 9.46879 10.5638C9.51562 10.777 9.59263 10.9825 9.69749 11.1739C9.83449 11.4338 9.99169 11.6824 10.1676 11.9176C10.4401 12.2786 10.7418 12.6166 11.0697 12.9281C11.3833 13.2581 11.7232 13.5621 12.086 13.837C12.3214 14.0144 12.5698 14.1737 12.8292 14.3137C12.9734 14.3939 13.127 14.4558 13.2865 14.498L13.4453 14.5295C13.4736 14.5271 13.5014 14.5207 13.5279 14.5106C13.5584 14.5022 13.5867 14.4869 13.6105 14.4661L14.3347 13.7288C14.4803 13.5958 14.6711 13.5231 14.8683 13.5254C14.9874 13.5196 15.1058 13.5459 15.2113 13.6016H15.2239L17.6762 15.0507C17.7559 15.0941 17.8254 15.1539 17.8802 15.2263C17.935 15.2986 17.9737 15.3821 17.9939 15.4706Z" fill="white"/>
</svg>
