<svg width="24" height="24" viewBox="0 0 24 24" fill="none" xmlns="http://www.w3.org/2000/svg">
<path d="M12.0031 8.6208e-07H11.9971C9.78582 -0.000837423 7.61741 0.6097 5.73146 1.76414C3.84551 2.91858 2.31545 4.57197 1.31039 6.54158C0.305327 8.5112 -0.135612 10.7203 0.0363049 12.9249C0.208222 15.1294 0.9863 17.2435 2.28455 19.0335L0.789051 23.4915L5.40155 22.017C6.96326 23.0458 8.74385 23.6954 10.6012 23.9137C12.4586 24.1321 14.3413 23.9132 16.099 23.2747C17.8567 22.6361 19.4409 21.5954 20.7249 20.2358C22.009 18.8761 22.9574 17.2351 23.4945 15.4437C24.0316 13.6524 24.1426 11.7603 23.8184 9.91843C23.4943 8.07659 22.7441 6.33602 21.6277 4.83565C20.5113 3.33528 19.0596 2.11666 17.3885 1.27707C15.7174 0.437474 13.8732 0.000149195 12.0031 8.6208e-07Z" fill="#00E676"/>
<path d="M18.9854 16.9455C18.7428 17.3846 18.4057 17.7644 17.9984 18.0572C17.5912 18.3501 17.1239 18.5488 16.6304 18.639C16.0034 18.7725 15.1844 18.879 12.4274 17.736C8.90091 16.275 6.62991 12.6915 6.45291 12.459C5.63839 11.4156 5.14346 10.1587 5.02791 8.84005C5.01242 8.29399 5.11389 7.75093 5.32551 7.24731C5.53714 6.74369 5.85402 6.29115 6.25491 5.92005C6.59317 5.62387 7.03276 5.46982 7.48191 5.49005C7.63041 5.49005 7.76391 5.49755 7.88391 5.50355C8.23641 5.51855 8.41391 5.53955 8.64591 6.09605C8.93541 6.79355 9.64041 8.51555 9.72441 8.69255C9.7838 8.78901 9.8194 8.89821 9.82827 9.01115C9.83714 9.12408 9.81902 9.2375 9.77541 9.34205C9.67674 9.54532 9.54551 9.73111 9.38691 9.89205C9.20991 10.096 9.04191 10.252 8.86491 10.471C8.70291 10.6615 8.51991 10.8655 8.72391 11.218C9.25121 12.1153 9.90718 12.9305 10.6709 13.6375C11.4912 14.3882 12.4459 14.977 13.4849 15.373C13.623 15.4386 13.7776 15.4609 13.9285 15.4371C14.0795 15.4133 14.2197 15.3444 14.3309 15.2395C14.6654 14.8426 14.9783 14.428 15.2684 13.9976C15.3539 13.855 15.4895 13.7493 15.6486 13.701C15.8077 13.6528 15.9791 13.6655 16.1294 13.7365C16.4534 13.849 18.1679 14.6965 18.5204 14.872C18.8729 15.0475 19.1054 15.133 19.1909 15.2815C19.2826 15.8445 19.2113 16.4219 18.9854 16.9455Z" fill="white"/>
</svg>
