<svg width="12" height="12" viewBox="0 0 12 12" fill="none" xmlns="http://www.w3.org/2000/svg">
<g clip-path="url(#clip0)">
<path fill-rule="evenodd" clip-rule="evenodd" d="M5.88893 2.42133C5.4778 2.14662 4.99446 2 4.5 2C3.83719 2.00074 3.20173 2.26437 2.73305 2.73305C2.26437 3.20173 2.00074 3.83719 2 4.5C2 4.99445 2.14662 5.4778 2.42133 5.88893C2.69603 6.30005 3.08648 6.62048 3.54329 6.8097C4.00011 6.99892 4.50278 7.04843 4.98773 6.95196C5.47268 6.8555 5.91814 6.6174 6.26777 6.26777C6.6174 5.91814 6.8555 5.47268 6.95197 4.98773C7.04843 4.50277 6.99892 4.00011 6.8097 3.54329C6.62048 3.08648 6.30005 2.69603 5.88893 2.42133ZM1.99994 0.758387C2.73996 0.26392 3.60999 0 4.5 0C5.69348 0 6.83807 0.474106 7.68198 1.31802C8.5259 2.16193 9 3.30653 9 4.5C9 5.34836 8.76021 6.17856 8.30953 6.89531L11.7071 10.2929C12.0976 10.6834 12.0976 11.3166 11.7071 11.7071C11.3166 12.0976 10.6834 12.0976 10.2929 11.7071L6.89531 8.30953C6.68203 8.44364 6.45692 8.56018 6.22208 8.65746C5.39981 8.99805 4.49501 9.08717 3.6221 8.91353C2.74918 8.7399 1.94736 8.31132 1.31802 7.68198C0.688685 7.05264 0.260102 6.25082 0.0864683 5.37791C-0.0871652 4.50499 0.00194979 3.60019 0.342544 2.77792C0.683138 1.95566 1.25991 1.25285 1.99994 0.758387Z" fill="#4D4D4D"/>
</g>
<defs>
<clipPath id="clip0">
<rect width="12" height="12" fill="white"/>
</clipPath>
</defs>
</svg>
