<svg width="60" height="60" viewBox="0 0 60 60" fill="none" xmlns="http://www.w3.org/2000/svg">
<circle opacity="0.1" cx="30" cy="30" r="29.5" stroke="black"/>
<path d="M26.2169 30.272H27.9089C30.9329 30.272 33.0209 31.856 33.0209 34.124C33.0209 36.248 31.2569 37.76 28.7729 37.76C26.8289 37.76 24.5969 37.148 22.4009 36.104L20.9249 39.524C23.9129 40.892 26.9009 41.432 29.6009 41.432C34.3529 41.432 37.7369 38.624 37.7369 34.592C37.7369 31.712 35.9009 29.372 33.2369 28.508C35.6489 27.644 37.1609 25.592 37.1609 22.928C37.1609 19.076 34.0289 16.376 29.6009 16.376C27.0449 16.376 24.3089 16.88 21.5009 18.14L22.9769 21.56C25.0649 20.588 27.0449 20.048 28.8809 20.048C31.0769 20.048 32.5529 21.416 32.5529 23.396C32.5529 25.484 30.6449 26.96 27.9089 26.96H26.2169V30.272Z" fill="#E4002B"/>
</svg>
