<svg width="24" height="24" viewBox="0 0 24 24" fill="none" xmlns="http://www.w3.org/2000/svg">
<path d="M12 24C18.6274 24 24 18.6274 24 12C24 5.37258 18.6274 0 12 0C5.37258 0 0 5.37258 0 12C0 18.6274 5.37258 24 12 24Z" fill="white"/>
<path d="M15.4186 8.8946C14.9682 7.79773 14.1898 6.86685 13.19 6.22934C12.1902 5.59183 11.0178 5.27884 9.8333 5.3332C6.6166 5.3332 4 7.5759 4 10.3332C4.0133 11.086 4.20709 11.8247 4.56508 12.4871C4.92307 13.1495 5.43481 13.7163 6.0573 14.1399L5.3686 15.5172C5.3357 15.5815 5.32458 15.6548 5.33693 15.726C5.34928 15.7972 5.38443 15.8625 5.43708 15.9119C5.48972 15.9614 5.55703 15.9925 5.62885 16.0004C5.70067 16.0083 5.77312 15.9927 5.8353 15.9559L7.5993 14.9472C8.07783 15.1163 8.57417 15.2299 9.0786 15.2859C9.13173 15.292 9.18554 15.2853 9.23551 15.2662C9.28547 15.2471 9.33012 15.2163 9.36568 15.1764C9.40125 15.1365 9.42668 15.0886 9.43984 15.0367C9.453 14.9849 9.4535 14.9307 9.4413 14.8786C9.37177 14.5908 9.33553 14.296 9.3333 13.9999C9.3333 11.4272 11.8753 9.3332 15 9.3332L15.098 9.3379C15.1515 9.33736 15.2041 9.32466 15.252 9.30075C15.2998 9.27684 15.3416 9.24235 15.3741 9.1999C15.4056 9.15637 15.4261 9.10587 15.4338 9.05271C15.4416 8.99955 15.4363 8.94531 15.4186 8.8946Z" fill="#4CAF50"/>
<path d="M7.6665 7.33325C7.46872 7.33325 7.27538 7.3919 7.11093 7.50178C6.94648 7.61166 6.81831 7.76784 6.74262 7.95057C6.66694 8.13329 6.64713 8.33436 6.68572 8.52834C6.7243 8.72232 6.81954 8.90051 6.9594 9.04036C7.09925 9.18021 7.27743 9.27545 7.47141 9.31404C7.66539 9.35262 7.86646 9.33282 8.04919 9.25713C8.23191 9.18144 8.38809 9.05327 8.49797 8.88882C8.60785 8.72437 8.6665 8.53103 8.6665 8.33325C8.6665 8.06804 8.56115 7.81368 8.37361 7.62614C8.18607 7.43861 7.93172 7.33325 7.6665 7.33325Z" fill="#FAFAFA"/>
<path d="M11.6665 7.33325C11.4687 7.33325 11.2754 7.3919 11.1109 7.50178C10.9465 7.61166 10.8183 7.76784 10.7426 7.95057C10.6669 8.13329 10.6471 8.33436 10.6857 8.52834C10.7243 8.72232 10.8195 8.90051 10.9594 9.04036C11.0993 9.18021 11.2774 9.27545 11.4714 9.31404C11.6654 9.35262 11.8665 9.33282 12.0492 9.25713C12.2319 9.18144 12.3881 9.05327 12.498 8.88882C12.6079 8.72437 12.6665 8.53103 12.6665 8.33325C12.6665 8.06804 12.5611 7.81368 12.3736 7.62614C12.1861 7.43861 11.9317 7.33325 11.6665 7.33325Z" fill="#FAFAFA"/>
<path d="M20 14C20 11.794 17.7573 10 15 10C12.2427 10 10 11.794 10 14C10 16.206 12.2426 18 15 18C15.5173 17.9998 16.0324 17.9344 16.5333 17.8053L18.186 18.6313C18.2465 18.6616 18.3147 18.6727 18.3817 18.6633C18.4486 18.6539 18.5111 18.6243 18.5609 18.5785C18.6107 18.5327 18.6453 18.4729 18.6603 18.407C18.6752 18.341 18.6698 18.2721 18.6446 18.2093L18.192 17.076C18.7245 16.7531 19.1685 16.303 19.4841 15.7661C19.7997 15.2292 19.9769 14.6223 20 14Z" fill="#4CAF50"/>
<path d="M13.3332 12C13.2013 12 13.0724 12.0391 12.9628 12.1124C12.8532 12.1856 12.7677 12.2897 12.7173 12.4116C12.6668 12.5334 12.6536 12.6674 12.6793 12.7968C12.705 12.9261 12.7685 13.0449 12.8618 13.1381C12.955 13.2314 13.0738 13.2949 13.2031 13.3206C13.3325 13.3463 13.4665 13.3331 13.5883 13.2827C13.7102 13.2322 13.8143 13.1467 13.8875 13.0371C13.9608 12.9275 13.9999 12.7986 13.9999 12.6667C13.9999 12.4899 13.9297 12.3203 13.8046 12.1953C13.6796 12.0702 13.51 12 13.3332 12Z" fill="#FAFAFA"/>
<path d="M16.6665 12C16.5346 12 16.4057 12.0391 16.2961 12.1124C16.1864 12.1856 16.101 12.2897 16.0505 12.4116C16 12.5334 15.9868 12.6674 16.0126 12.7968C16.0383 12.9261 16.1018 13.0449 16.195 13.1381C16.2883 13.2314 16.4071 13.2949 16.5364 13.3206C16.6657 13.3463 16.7998 13.3331 16.9216 13.2827C17.0434 13.2322 17.1475 13.1467 17.2208 13.0371C17.2941 12.9275 17.3332 12.7986 17.3332 12.6667C17.3332 12.5791 17.3159 12.4924 17.2824 12.4115C17.2489 12.3307 17.1998 12.2572 17.1379 12.1952C17.076 12.1333 17.0025 12.0842 16.9216 12.0507C16.8407 12.0172 16.754 12 16.6665 12Z" fill="#FAFAFA"/>
</svg>
